# xmcd CD database file
#
# Track frame offsets:
#	151
#	38740
#	47913
#	53571
#	65303
#	129517
#	148283
#	158178
#	191876
#	202888
#	222542
#	231890
#	239472
#	248866
#
# Disc length: 3473 seconds
#
# Revision: 0
# Processed by: cddbd v1.4PL0 Copyright (c) Steve Scherf et al.
# Submitted via: CDex 1.50beta10
#
DISCID=d30d8f0e
DTITLE=John Bundrick - The Fairy Garden
DYEAR=2002
DGENRE=New Age
TTITLE0=A New Dawn
TTITLE1=Starshine
TTITLE2=Silhouetes
TTITLE3=The Fairy Garden
TTITLE4=Passing Clouds
TTITLE5=The Magic In You
TTITLE6=Earth Mother
TTITLE7=Morning Dew
TTITLE8=The Wind Aweakens
TTITLE9=Ancient Oak
TTITLE10=The Secret Path
TTITLE11=Winds Of Time
TTITLE12=The Lilly Pond
TTITLE13=Free As A Bird
EXTD=YEAR: 2002
EXTT0=
EXTT1=
EXTT2=
EXTT3=
EXTT4=
EXTT5=
EXTT6=
EXTT7=
EXTT8=
EXTT9=
EXTT10=
EXTT11=
EXTT12=
EXTT13=
PLAYORDER=
